<svg xmlns="http://www.w3.org/2000/svg" viewBox="0 0 100 100" fill="none">
  <defs>
    <linearGradient id="grad1" x1="0%" y1="0%" x2="100%" y2="100%">
      <stop offset="0%" style="stop-color:#60a5fa;stop-opacity:1" />
      <stop offset="100%" style="stop-color:#a855f7;stop-opacity:1" />
    </linearGradient>
  </defs>
  
  <!-- Background Circle -->
  <circle cx="50" cy="50" r="45" fill="url(#grad1)" />
  
  <!-- Headset Icon -->
  <path d="M25 50v15a5 5 0 0 0 5 5h5a5 5 0 0 0 5-5V50a25 25 0 0 1 50 0v15a5 5 0 0 0 5 5h5a5 5 0 0 0 5-5V50a35 35 0 0 0-70 0z" fill="white"/>
  <rect x="25" y="45" width="10" height="25" rx="5" fill="white"/>
  <rect x="65" y="45" width="10" height="25" rx="5" fill="white"/>
  
  <!-- Microphone Boom -->
  <path d="M70 65v5a20 20 0 0 1-40 0" stroke="white" stroke-width="6" stroke-linecap="round"/>
  
  <!-- Microphone Head -->
  <circle cx="30" cy="70" r="6" fill="#fbbf24" />
</svg>
